# xmcd CD database file
#
# Track frame offsets:
#	150
#	6433
#	97094
#	128378
#	167631
#	195943
#
# Disc length: 4188 seconds
#
# Revision: 0
# Processed by: cddbd v1.5.2PL0 Copyright (c) Steve Scherf et al.
# Submitted via: CDex 1.77
#
DISCID=40105a06
DTITLE=Antonio Sanchez and Migration - Lines in the Sand
DYEAR=2018
DGENRE=Jazz
TTITLE0=Traversia Intro
TTITLE1=Traversia (Part I - Part II - Part III)
TTITLE2=Long Road
TTITLE3=Bad Hombres y Mujeres
TTITLE4=Home
TTITLE5=Lines in the Sand (Part I - Part II)
EXTD=YEAR: 2018
EXTT0=
EXTT1=
EXTT2=
EXTT3=
EXTT4=
EXTT5=
PLAYORDER=
